<?xml version="1.0" encoding="UTF-8"?>
<svg id="Calque_1" data-name="Calque 1" xmlns="http://www.w3.org/2000/svg" viewBox="0 0 1111.69 1322.19">
  <defs>
    <style>
      .cls-1 {
        fill: #ffcc03;
      }

      .cls-2 {
        fill: none;
      }
    </style>
  </defs>
  <polygon class="cls-2" points="261.42 990.55 261.42 908.79 103.15 984.73 103.15 1048.96 577.21 1224.71 1019.06 924.14 1019.06 541.31 879.87 611.32 879.87 881.88 575.79 1092.44 261.42 990.55"/>
  <polygon class="cls-2" points="103.15 125.32 103.15 711.86 261.42 637.26 261.42 368.95 575.79 488.6 1019.06 276.48 1019.06 126.8 575.79 333.06 103.15 125.32"/>
  <path d="m344.62,467.25l231.09,88.9,514.1-246.59V18.95l-513.34,244.05L24.1,20.43v800.3l318.82-152.92m0,0,0-96.14v-104.42m676.14-190.77l-443.28,212.12-314.36-119.65v268.31l-158.28,74.6V125.32l472.64,207.74,443.28-206.26v149.68Z"/>
  <path class="cls-1" d="m799.05,650.8v203.95l-243.47,166.78-213.34-69.33v-156.59L21.88,951.86l.46.53v135.59l566.93,215.26,499.87-351.73V431.32l-290.07,141.48v78Zm80.82-39.48l139.2-70v382.83l-441.86,300.57-474.06-175.76v-64.22l158.28-75.94v81.76l314.36,101.89,304.08-210.56v-270.56Z"/>
</svg>